<?xml version="1.0" standalone="no"?><!DOCTYPE svg PUBLIC "-//W3C//DTD SVG 1.1//EN" "http://www.w3.org/Graphics/SVG/1.1/DTD/svg11.dtd"><svg t="1765454290098" class="icon" viewBox="0 0 1024 1024" version="1.1" xmlns="http://www.w3.org/2000/svg" p-id="51603" width="64" height="64" xmlns:xlink="http://www.w3.org/1999/xlink"><path d="M724.634 84.373c12.496-12.497 32.756-12.497 45.253-0.002l170.74 170.72c12.497 12.497 12.498 32.759 0 45.256L343.05 897.942a32 32 0 0 1-16.352 8.751L113.276 949.38c-22.391 4.478-42.133-15.264-37.655-37.655l42.685-213.426a32 32 0 0 1 8.751-16.352l490.295-490.293a32.613 32.613 0 0 1 1.156-1.157z m-551.74 667.322L147.79 877.207l125.508-25.102-100.406-100.41zM725.92 344.318L290.977 779.272l40.114 40.115 434.943-434.954-40.114-40.115z m-85.36-85.364L205.61 693.902l40.113 40.115 434.943-434.955-40.107-40.108z m106.702-106.701L685.814 213.7l41.39 41.391 21.312 21.312 0.032 0.032 0.03 0.031 62.71 62.711 61.456-61.456-125.482-125.468z" p-id="51604" fill="#ff7f50"></path></svg>