<?xml version="1.0" standalone="no"?><!DOCTYPE svg PUBLIC "-//W3C//DTD SVG 1.1//EN" "http://www.w3.org/Graphics/SVG/1.1/DTD/svg11.dtd"><svg t="1765455953689" class="icon" viewBox="0 0 1280 1024" version="1.1" xmlns="http://www.w3.org/2000/svg" p-id="25412" width="80" height="64" xmlns:xlink="http://www.w3.org/1999/xlink"><path d="M1262.52046 193L873.12046 0C832.92046 55.6 743.92046 94.4 640.12046 94.4S447.32046 55.6 407.12046 0L17.72046 193c-15.8 8-22.2 27.2-14.4 43l114.4 229c8 15.8 27.2 22.2 43 14.4l113.2-55.4c21.2-10.4 46 5 46 28.8V960c0 35.4 28.6 64 64 64h512c35.4 0 64-28.6 64-64V452.6c0-23.6 24.8-39.2 46-28.8l113.2 55.4c15.8 8 35 1.6 43-14.4L1276.72046 236c8-15.8 1.6-35.2-14.2-43z" p-id="25413" fill="#ffffff"></path></svg>