<?xml version="1.0" standalone="no"?><!DOCTYPE svg PUBLIC "-//W3C//DTD SVG 1.1//EN" "http://www.w3.org/Graphics/SVG/1.1/DTD/svg11.dtd"><svg t="1765456246479" class="icon" viewBox="0 0 1253 1024" version="1.1" xmlns="http://www.w3.org/2000/svg" p-id="32608" width="78.3125" height="64" xmlns:xlink="http://www.w3.org/1999/xlink"><path d="M751.717765 278.746285l-96.079414-111.810469Q745.611983 0.053326 930.14525 0.053326C1114.678517 0.053326 1305.717508 164.88278 1239.820387 375.585589q-64.310683 205.810184-616.950622 646.572998a8.332126 8.332126 0 0 1-12.824809-9.905232l146.485446-329.498932a20.876976 20.876976 0 0 0-6.399073-25.049705L589.44794 534.855849a20.863644 20.863644 0 0 1-3.906101-29.249096l0.546588-0.679902L751.891074 305.689048a20.876976 20.876976 0 0 0-0.173309-26.942763z" fill="#ff7f50" p-id="32609"></path><path d="M606.285501 279.732808Q508.779627 123.635422 405.274621 83.467908c-107.584414-41.727288-292.117681-41.727288-375.585589 125.195196-60.631216 121.315758-32.781918 259.335763 125.195197 417.272883s208.62311 208.663104 388.743682 355.788457c27.569339 22.503407 32.968557 0.226634 35.168239-9.571946q28.235909-125.195196 56.458487-250.417056a20.930301 20.930301 0 0 0-6.825677-20.45037l-183.973348-156.763957a20.876976 20.876976 0 0 1-2.999566-28.62252l163.656292-212.369234a20.850313 20.850313 0 0 0 1.173163-23.796553z" fill="#ff7f50" p-id="32610"></path></svg>