<?xml version="1.0" standalone="no"?><!DOCTYPE svg PUBLIC "-//W3C//DTD SVG 1.1//EN" "http://www.w3.org/Graphics/SVG/1.1/DTD/svg11.dtd"><svg t="1765456693112" class="icon" viewBox="0 0 1024 1024" version="1.1" xmlns="http://www.w3.org/2000/svg" p-id="39734" xmlns:xlink="http://www.w3.org/1999/xlink" width="64" height="64"><path d="M715 752.3c-29 23.8-61.9 42.3-97.3 54.6v69.6c0 28.7-23.2 51.9-51.9 51.9H458.5c-28.7 0-51.9-23.2-51.9-51.9v-69.6c-35.4-12.3-68.4-30.8-97.3-54.6l-58.9 34c-24.8 14.3-56.5 5.8-70.9-19l-53.6-93c-14.3-24.8-5.9-56.5 18.9-70.9l56.1-32.4c-7.3-38.2-7.3-77.4 0-115.6L144.8 423c-24.8-14.3-33.3-46.1-19-70.9l53.6-93c14.3-24.8 46.1-33.3 70.9-19l58.9 34c29-23.8 61.9-42.4 97.4-54.7v-69.5c0-28.7 23.2-51.9 51.9-51.9h107.3c28.7 0 51.9 23.2 51.9 51.9v69.6c35.9 12.5 68.7 31.1 97.3 54.6l58.9-34c24.8-14.3 56.5-5.8 70.9 19l53.6 93c14.3 24.8 5.8 56.5-19 70.9l-56.1 32.4c7.3 38.2 7.3 77.4 0 115.6l56.1 32.4c24.8 14.3 33.3 46.1 19 70.9l-53.6 93c-14.3 24.8-46.1 33.3-70.9 19l-58.9-34zM512.1 669c87.4 0 158.3-69.7 158.3-155.7s-70.9-155.7-158.3-155.7-158.3 69.7-158.3 155.7S424.7 669 512.1 669z" p-id="39735" fill="#ffffff"></path></svg>