<?xml version="1.0" standalone="no"?><!DOCTYPE svg PUBLIC "-//W3C//DTD SVG 1.1//EN" "http://www.w3.org/Graphics/SVG/1.1/DTD/svg11.dtd"><svg t="1765455730084" class="icon" viewBox="0 0 1024 1024" version="1.1" xmlns="http://www.w3.org/2000/svg" p-id="19023" width="64" height="64" xmlns:xlink="http://www.w3.org/1999/xlink"><path d="M955.733333 311.466667c0-17.066667-17.066667-34.133333-34.133333-34.133334h-119.466667C793.6 145.066667 669.866667 42.666667 520.533333 42.666667h-21.333333c-149.333333 4.266667-273.066667 106.666667-277.333333 238.933333H102.4c-17.066667 0-34.133333 12.8-34.133333 34.133333L42.666667 861.866667v4.266666c4.266667 64 64 115.2 132.266666 115.2h674.133334c68.266667 0 123.733333-51.2 132.266666-115.2v-4.266666l-25.6-550.4zM499.2 110.933333h21.333333c102.4-4.266667 192 68.266667 204.8 166.4H294.4c12.8-98.133333 102.4-170.666667 204.8-166.4zM256 482.133333c-17.066667 0-34.133333-12.8-34.133333-29.866666V379.733333c0-17.066667 12.8-34.133333 34.133333-34.133333h4.266667c17.066667 0 34.133333 12.8 34.133333 29.866667v72.533333c-4.266667 17.066667-17.066667 29.866667-38.4 34.133333z m546.133333-34.133333c0 21.333333-17.066667 34.133333-38.4 34.133333-17.066667 0-34.133333-17.066667-34.133333-34.133333V379.733333c0-21.333333 17.066667-34.133333 38.4-34.133333 17.066667 0 34.133333 17.066667 34.133333 34.133333v68.266667z" p-id="19024" fill="#ff7f50"></path></svg>