<svg
   version="1.1"
   width="300"
   height="215" 
   viewBox="650 580 480 345"
   xmlns="http://www.w3.org/2000/svg">
  <g transform="matrix(1,0,0,-1,0,1500)">
    <path
       id="chanel_logo_centered"
       d="m 893.422,598.367 c -21.445,-12.406 -47.098,-19.765 -74.43,-19.765 -55.926,0 -104.914,30.484 -131.406,75.687 0,0.215 -0.211,0.215 -0.211,0.422 0,0.211 -0.211,0.211 -0.211,0.422 l 21.449,11.14 21.442,10.934 c 0.211,-0.207 0.425,-0.418 0.633,-0.84 18.292,-29.644 51.093,-49.41 88.304,-49.41 11.988,0 23.551,2.106 33.852,5.469 -22.918,26.281 -36.797,60.762 -36.797,98.398 0,37.422 13.672,71.903 36.375,98.395 -10.301,3.574 -21.656,5.469 -33.43,5.469 -36.793,0 -70.851,-19.762 -89.566,-51.512 -0.207,-0.211 -0.207,-0.422 -0.207,-0.633 l -43.106,22.285 c 0.215,0.426 0.422,0.844 0.633,1.055 26.281,46.043 75.899,76.949 132.246,76.949 27.332,0 52.985,-7.355 74.43,-19.973 21.445,12.618 47.098,19.973 74.426,19.973 56.352,0 105.962,-30.906 132.252,-76.949 0.2,-0.211 0.42,-0.629 0.63,-1.055 l -43.1,-22.285 c 0,0.211 0,0.422 -0.22,0.633 -18.71,31.75 -52.77,51.512 -89.562,51.512 -11.77,0 -23.125,-1.895 -33.426,-5.469 22.703,-26.492 36.371,-60.973 36.371,-98.395 0,-37.636 -13.875,-72.117 -36.793,-98.398 10.301,-3.363 21.863,-5.469 33.848,-5.469 37.212,0 70.012,19.766 88.302,49.41 0.21,0.422 0.43,0.633 0.64,0.84 l 21.44,-10.934 21.45,-11.14 c 0,-0.211 -0.21,-0.211 -0.21,-0.422 0,-0.207 -0.21,-0.207 -0.21,-0.422 -26.49,-45.203 -75.48,-75.687 -131.412,-75.687 -27.328,0 -52.981,7.359 -74.426,19.765 z m 0,60.34 c -17.66,18.711 -29.016,44.152 -29.016,72.117 0,27.539 10.723,52.563 29.016,71.274 18.289,-18.711 29.012,-43.735 29.012,-71.274 0,-27.965 -11.352,-53.406 -29.012,-72.117"
       style="fill:#FFFFFF;fill-opacity:1;fill-rule:evenodd;stroke:none" />
  </g>
</svg>