<?xml version="1.0" standalone="no"?><!DOCTYPE svg PUBLIC "-//W3C//DTD SVG 1.1//EN" "http://www.w3.org/Graphics/SVG/1.1/DTD/svg11.dtd"><svg t="1765454641021" class="icon" viewBox="0 0 1024 1024" version="1.1" xmlns="http://www.w3.org/2000/svg" p-id="56653" width="64" height="64" xmlns:xlink="http://www.w3.org/1999/xlink"><path d="M483.876 241.694L348.912 511.727 164.29 419.381c-24.902-12.457-52.731 10.633-45.085 37.407l127.95 448c3.924 13.74 16.481 23.212 30.77 23.212h469.15c14.289 0 26.846-9.473 30.77-23.212l127.95-448 0.218-0.802c6.872-26.43-20.65-48.937-45.303-36.605l-184.623 92.346-134.963-270.033c-11.791-23.592-45.457-23.592-57.248 0zM149.975 288C96.967 288 54 330.983 54 384s42.967 96 95.975 96c53.008 0 95.975-42.983 95.975-96s-42.967-96-95.975-96zM512.5 96c-53.008 0-95.975 42.983-95.975 96s42.967 96 95.975 96c53.008 0 95.975-42.983 95.975-96S565.508 96 512.5 96z m362.525 192c-53.008 0-95.975 42.983-95.975 96s42.967 96 95.975 96C928.033 480 971 437.017 971 384s-42.967-96-95.975-96z" p-id="56654" fill="#ff7f50"></path></svg>