<svg version="1.1" width="300" height="300" viewBox="0 0 1000 1000" xmlns="http://www.w3.org/2000/svg">
  <g transform="translate(100, 850) scale(0.45, -0.45)">
    <path
       d="M 1441.1,1709.45 1039.47,761.543 928.676,1004.68 1133.34,1561.73 c 15.39,43.08 69.25,63.09 160.04,63.09 l 32.31,84.63 H 848.66 l -30.777,-84.63 c 67.707,0 95.406,-20.01 84.633,-63.09 L 800.957,1278.59 600.91,1709.45 c -36.93,46.17 -18.465,69.25 53.86,69.25 v 100.02 H 193.125 V 1778.7 c 86.176,0 140.031,-23.08 163.117,-69.25 L 694.777,989.293 536.281,566.117 C 533.203,509.184 443.953,481.48 271.605,481.48 L 239.293,396.848 H 1556.51 l 183.12,389.32 h -95.41 C 1554.97,584.582 1451.88,481.48 1336.46,481.48 H 731.711 l 89.25,238.516 76.941,-153.879 h 172.348 l 486.26,1143.333 c 23.08,69.25 83.1,106.18 176.96,106.18 v 89.25 h -397.01 v -89.25 c 120.03,0 153.88,-36.93 104.64,-106.18"
       fill="#FFFFFF" />
  </g>
</svg>