<svg id="svg" version="1.1" viewBox="0 0 300 300" width="300" height="300" xmlns="http://www.w3.org/2000/svg">
  <g fill="none" fill-rule="nonzero">
    <path d="M150.73096,39.32695c38.40088,0.5376 88.85889,7.09482 85.33154,57.66357c-1.57764,22.61865 -10.36084,39.77432 -21.35449,59.1252c-4.70361,8.18408 -8.20459,15.75879 -11.77295,24.51709c-7.68311,18.85693 -0.25195,34.42383 18.12305,42.20361c9.73682,4.12207 24.5127,-1.87207 33.73828,-6.33252c-8.7876,16.51172 -27.78223,31.01367 -47.04199,30.08203c-13.41797,-0.64893 -27.25781,-5.45508 -36.62988,-15.46289c-8.10645,-8.65576 -13.7168,-20.27783 -13.29346,-32.34668c0.42334,-8.23389 5.92383,-21.12305 8.95898,-29.23975c8.93262,-24.38599 20.43604,-49.48301 21.39844,-75.81753c0.97119,-26.56626 -14.83008,-35.23872 -38.54297,-35.644c-7.95601,0.22207 -15.70239,0.95771 -22.98281,4.79238c-25.18052,13.26299 -12.01978,54.19263 -5.23198,74.79609c3.37632,10.24819 8.04653,21.95962 11.9439,32.08901c2.09722,5.34229 4.07358,10.73145 5.92778,16.16309c3.1374,9.39844 4.30474,15.8584 1.18477,25.75342c-4.20278,13.32861 -13.94019,24.67529 -26.90566,30.08643c-11.2251,4.68457 -23.5418,6.62988 -35.34316,2.90039c-11.00391,-3.39404 -19.83691,-10.51904 -26.9792,-19.40918c-2.2355,-2.7832 -4.25464,-5.54297 -5.92441,-8.729c8.00947,3.93457 17.4999,7.66113 26.5998,7.61279c8.04111,-0.04248 15.17344,-5.08447 20.68066,-10.54248c4.40947,-4.37109 7.56094,-10.875 7.55054,-17.26904c-0.02549,-15.53467 -10.46763,-31.8501 -17.55132,-45.23877c-3.43726,-6.29077 -6.88901,-12.66226 -9.77871,-19.22344c-9.32607,-21.17534 -15.43096,-53.5686 2.89321,-71.84927c18.57407,-18.52998 50.37935,-20.28252 75.00205,-20.677z" fill="#FFFFFF"/>
  </g>
</svg>