<?xml version="1.0" standalone="no"?><!DOCTYPE svg PUBLIC "-//W3C//DTD SVG 1.1//EN" "http://www.w3.org/Graphics/SVG/1.1/DTD/svg11.dtd"><svg t="1770302775231" class="icon" viewBox="0 0 1161 1024" version="1.1" xmlns="http://www.w3.org/2000/svg" p-id="5909" width="72.5625" height="64" xmlns:xlink="http://www.w3.org/1999/xlink"><path d="M601.156267 671.5392l78.165333-22.391467 145.271467-41.642666 26.2144-7.509334 123.2896-35.157333-123.2896-36.864-171.485867-51.4048-76.663467-23.005867-2.730666-8.533333-51.677867-163.0208-40.482133-127.249067-11.400534-35.771733-6.144-19.319467-6.280533 19.319467-54.272 163.0208-54.340267 163.0208-2.2528 7.168-36.864 10.513067-171.6224 49.152L0 558.762667l163.089067 48.7424 1.501866 0.477866 171.6224 51.4048 35.4304 10.513067 31.744 100.215467 51.6096 162.474666L483.9424 1024l23.825067-71.611733 6.5536-19.6608 53.998933-162.474667 32.836267-98.7136z m340.3776-552.5504L899.072 0l-34.952533 118.9888-13.312 44.919467-6.5536 22.254933-164.932267 52.906667-27.989333 9.0112 27.989333 7.3728 100.215467 26.624 67.925333 18.0224 3.413333 9.4208 48.3328 135.509333 13.5168 38.229333 11.264-38.229333 43.554134-148.002133 46.762666-15.018667 8.192-2.6624L1160.533333 235.1104l-138.0352-36.590933-58.1632-15.428267-22.801066-64.1024z" p-id="5910" fill="#ffffff"></path></svg>